<?xml version="1.0" encoding="UTF-8"?>
<svg enable-background="new 0 0 120 120" version="1.1" viewBox="0 0 120 120" xml:space="preserve" xmlns="http://www.w3.org/2000/svg">
<style type="text/css">
	.st0{fill:#BCBBBB;}
	.st1{fill:#F48023;}
</style>
<polygon class="st0" points="84.4 93.8 84.4 70.6 92.1 70.6 92.1 101.5 22.6 101.5 22.6 70.6 30.3 70.6 30.3 93.8"/>
<path class="st1" d="m38.8 68.4l37.8 7.9 1.6-7.6-37.8-7.9-1.6 7.6zm5-18l35 16.3 3.2-7-35-16.4-3.2 7.1zm9.7-17.2l29.7 24.7 4.9-5.9-29.7-24.7-4.9 5.9zm19.2-18.3l-6.2 4.6 23 31 6.2-4.6-23-31zm-34.7 71.1h38.6v-7.7h-38.6v7.7z"/>
</svg>
